# Generated AMR text label mesh
mtllib label_text_black.mtl
o label_robot_1
usemtl label_text_black
v -0.011579 0.202632 0.000000
v 0.000000 0.202632 0.000000
v 0.000000 0.208421 0.000000
v -0.011579 0.208421 0.000000
v -0.023158 0.196842 0.000000
v 0.000000 0.196842 0.000000
v 0.000000 0.202632 0.000000
v -0.023158 0.202632 0.000000
v -0.023158 0.191053 0.000000
v 0.005789 0.191053 0.000000
v 0.005789 0.196842 0.000000
v -0.023158 0.196842 0.000000
v -0.017368 0.185263 0.000000
v 0.005789 0.185263 0.000000
v 0.005789 0.191053 0.000000
v -0.017368 0.191053 0.000000
v -0.017368 0.179474 0.000000
v 0.005789 0.179474 0.000000
v 0.005789 0.185263 0.000000
v -0.017368 0.185263 0.000000
v -0.017368 0.173684 0.000000
v 0.011579 0.173684 0.000000
v 0.011579 0.179474 0.000000
v -0.017368 0.179474 0.000000
v -0.086842 0.167895 0.000000
v 0.086842 0.167895 0.000000
v 0.086842 0.173684 0.000000
v -0.086842 0.173684 0.000000
v -0.086842 0.162105 0.000000
v 0.086842 0.162105 0.000000
v 0.086842 0.167895 0.000000
v -0.086842 0.167895 0.000000
v -0.086842 0.156316 0.000000
v 0.086842 0.156316 0.000000
v 0.086842 0.162105 0.000000
v -0.086842 0.162105 0.000000
v -0.086842 0.150526 0.000000
v 0.086842 0.150526 0.000000
v 0.086842 0.156316 0.000000
v -0.086842 0.156316 0.000000
v -0.011579 0.144737 0.000000
v 0.011579 0.144737 0.000000
v 0.011579 0.150526 0.000000
v -0.011579 0.150526 0.000000
v -0.011579 0.138947 0.000000
v 0.011579 0.138947 0.000000
v 0.011579 0.144737 0.000000
v -0.011579 0.144737 0.000000
v -0.011579 0.133158 0.000000
v 0.011579 0.133158 0.000000
v 0.011579 0.138947 0.000000
v -0.011579 0.138947 0.000000
v -0.011579 0.127368 0.000000
v 0.011579 0.127368 0.000000
v 0.011579 0.133158 0.000000
v -0.011579 0.133158 0.000000
v -0.011579 0.121579 0.000000
v 0.011579 0.121579 0.000000
v 0.011579 0.127368 0.000000
v -0.011579 0.127368 0.000000
v -0.011579 0.115789 0.000000
v 0.011579 0.115789 0.000000
v 0.011579 0.121579 0.000000
v -0.011579 0.121579 0.000000
v -0.075263 0.110000 0.000000
v 0.075263 0.110000 0.000000
v 0.075263 0.115789 0.000000
v -0.075263 0.115789 0.000000
v -0.075263 0.104211 0.000000
v 0.075263 0.104211 0.000000
v 0.075263 0.110000 0.000000
v -0.075263 0.110000 0.000000
v -0.075263 0.098421 0.000000
v 0.075263 0.098421 0.000000
v 0.075263 0.104211 0.000000
v -0.075263 0.104211 0.000000
v -0.075263 0.092632 0.000000
v 0.075263 0.092632 0.000000
v 0.075263 0.098421 0.000000
v -0.075263 0.098421 0.000000
v -0.011579 0.086842 0.000000
v 0.011579 0.086842 0.000000
v 0.011579 0.092632 0.000000
v -0.011579 0.092632 0.000000
v -0.011579 0.081053 0.000000
v 0.011579 0.081053 0.000000
v 0.011579 0.086842 0.000000
v -0.011579 0.086842 0.000000
v -0.011579 0.075263 0.000000
v 0.011579 0.075263 0.000000
v 0.011579 0.081053 0.000000
v -0.011579 0.081053 0.000000
v -0.011579 0.069474 0.000000
v 0.011579 0.069474 0.000000
v 0.011579 0.075263 0.000000
v -0.011579 0.075263 0.000000
v -0.011579 0.063684 0.000000
v 0.011579 0.063684 0.000000
v 0.011579 0.069474 0.000000
v -0.011579 0.069474 0.000000
v -0.011579 0.057895 0.000000
v 0.011579 0.057895 0.000000
v 0.011579 0.063684 0.000000
v -0.011579 0.063684 0.000000
v -0.011579 0.052105 0.000000
v 0.011579 0.052105 0.000000
v 0.011579 0.057895 0.000000
v -0.011579 0.057895 0.000000
v -0.011579 0.046316 0.000000
v 0.011579 0.046316 0.000000
v 0.011579 0.052105 0.000000
v -0.011579 0.052105 0.000000
v -0.092632 0.040526 0.000000
v 0.092632 0.040526 0.000000
v 0.092632 0.046316 0.000000
v -0.092632 0.046316 0.000000
v -0.092632 0.034737 0.000000
v 0.092632 0.034737 0.000000
v 0.092632 0.040526 0.000000
v -0.092632 0.040526 0.000000
v -0.092632 0.028947 0.000000
v 0.092632 0.028947 0.000000
v 0.092632 0.034737 0.000000
v -0.092632 0.034737 0.000000
v -0.092632 0.023158 0.000000
v 0.092632 0.023158 0.000000
v 0.092632 0.028947 0.000000
v -0.092632 0.028947 0.000000
v -0.017368 -0.028947 0.000000
v 0.000000 -0.028947 0.000000
v 0.000000 -0.023158 0.000000
v -0.017368 -0.023158 0.000000
v -0.023158 -0.034737 0.000000
v 0.000000 -0.034737 0.000000
v 0.000000 -0.028947 0.000000
v -0.023158 -0.028947 0.000000
v -0.023158 -0.040526 0.000000
v 0.000000 -0.040526 0.000000
v 0.000000 -0.034737 0.000000
v -0.023158 -0.034737 0.000000
v -0.028947 -0.046316 0.000000
v -0.005789 -0.046316 0.000000
v -0.005789 -0.040526 0.000000
v -0.028947 -0.040526 0.000000
v -0.081053 -0.052105 0.000000
v 0.081053 -0.052105 0.000000
v 0.081053 -0.046316 0.000000
v -0.081053 -0.046316 0.000000
v -0.081053 -0.057895 0.000000
v 0.081053 -0.057895 0.000000
v 0.081053 -0.052105 0.000000
v -0.081053 -0.052105 0.000000
v -0.081053 -0.063684 0.000000
v 0.081053 -0.063684 0.000000
v 0.081053 -0.057895 0.000000
v -0.081053 -0.057895 0.000000
v -0.081053 -0.069474 0.000000
v 0.081053 -0.069474 0.000000
v 0.081053 -0.063684 0.000000
v -0.081053 -0.063684 0.000000
v -0.040526 -0.075263 0.000000
v -0.017368 -0.075263 0.000000
v -0.017368 -0.069474 0.000000
v -0.040526 -0.069474 0.000000
v -0.046316 -0.081053 0.000000
v -0.023158 -0.081053 0.000000
v -0.023158 -0.075263 0.000000
v -0.046316 -0.075263 0.000000
v -0.005789 -0.081053 0.000000
v 0.017368 -0.081053 0.000000
v 0.017368 -0.075263 0.000000
v -0.005789 -0.075263 0.000000
v -0.052105 -0.086842 0.000000
v -0.023158 -0.086842 0.000000
v -0.023158 -0.081053 0.000000
v -0.052105 -0.081053 0.000000
v -0.005789 -0.086842 0.000000
v 0.017368 -0.086842 0.000000
v 0.017368 -0.081053 0.000000
v -0.005789 -0.081053 0.000000
v -0.052105 -0.092632 0.000000
v -0.028947 -0.092632 0.000000
v -0.028947 -0.086842 0.000000
v -0.052105 -0.086842 0.000000
v -0.005789 -0.092632 0.000000
v 0.017368 -0.092632 0.000000
v 0.017368 -0.086842 0.000000
v -0.005789 -0.086842 0.000000
v -0.057895 -0.098421 0.000000
v -0.034737 -0.098421 0.000000
v -0.034737 -0.092632 0.000000
v -0.057895 -0.092632 0.000000
v -0.005789 -0.098421 0.000000
v 0.017368 -0.098421 0.000000
v 0.017368 -0.092632 0.000000
v -0.005789 -0.092632 0.000000
v -0.063684 -0.104211 0.000000
v -0.034737 -0.104211 0.000000
v -0.034737 -0.098421 0.000000
v -0.063684 -0.098421 0.000000
v -0.005789 -0.104211 0.000000
v 0.017368 -0.104211 0.000000
v 0.017368 -0.098421 0.000000
v -0.005789 -0.098421 0.000000
v -0.069474 -0.110000 0.000000
v 0.069474 -0.110000 0.000000
v 0.069474 -0.104211 0.000000
v -0.069474 -0.104211 0.000000
v -0.069474 -0.115789 0.000000
v 0.075263 -0.115789 0.000000
v 0.075263 -0.110000 0.000000
v -0.069474 -0.110000 0.000000
v -0.069474 -0.121579 0.000000
v 0.075263 -0.121579 0.000000
v 0.075263 -0.115789 0.000000
v -0.069474 -0.115789 0.000000
v -0.063684 -0.127368 0.000000
v 0.069474 -0.127368 0.000000
v 0.069474 -0.121579 0.000000
v -0.063684 -0.121579 0.000000
v -0.005789 -0.133158 0.000000
v 0.017368 -0.133158 0.000000
v 0.017368 -0.127368 0.000000
v -0.005789 -0.127368 0.000000
v -0.005789 -0.138947 0.000000
v 0.017368 -0.138947 0.000000
v 0.017368 -0.133158 0.000000
v -0.005789 -0.133158 0.000000
v -0.005789 -0.144737 0.000000
v 0.017368 -0.144737 0.000000
v 0.017368 -0.138947 0.000000
v -0.005789 -0.138947 0.000000
v -0.086842 -0.150526 0.000000
v 0.086842 -0.150526 0.000000
v 0.086842 -0.144737 0.000000
v -0.086842 -0.144737 0.000000
v -0.086842 -0.156316 0.000000
v 0.092632 -0.156316 0.000000
v 0.092632 -0.150526 0.000000
v -0.086842 -0.150526 0.000000
v -0.086842 -0.162105 0.000000
v 0.092632 -0.162105 0.000000
v 0.092632 -0.156316 0.000000
v -0.086842 -0.156316 0.000000
v -0.086842 -0.167895 0.000000
v 0.086842 -0.167895 0.000000
v 0.086842 -0.162105 0.000000
v -0.086842 -0.162105 0.000000
v -0.005789 -0.173684 0.000000
v 0.017368 -0.173684 0.000000
v 0.017368 -0.167895 0.000000
v -0.005789 -0.167895 0.000000
v -0.005789 -0.179474 0.000000
v 0.017368 -0.179474 0.000000
v 0.017368 -0.173684 0.000000
v -0.005789 -0.173684 0.000000
v -0.005789 -0.185263 0.000000
v 0.017368 -0.185263 0.000000
v 0.017368 -0.179474 0.000000
v -0.005789 -0.179474 0.000000
v -0.005789 -0.191053 0.000000
v 0.017368 -0.191053 0.000000
v 0.017368 -0.185263 0.000000
v -0.005789 -0.185263 0.000000
v -0.005789 -0.196842 0.000000
v 0.017368 -0.196842 0.000000
v 0.017368 -0.191053 0.000000
v -0.005789 -0.191053 0.000000
v -0.005789 -0.202632 0.000000
v 0.017368 -0.202632 0.000000
v 0.017368 -0.196842 0.000000
v -0.005789 -0.196842 0.000000
v -0.005789 -0.208421 0.000000
v 0.017368 -0.208421 0.000000
v 0.017368 -0.202632 0.000000
v -0.005789 -0.202632 0.000000
f 1 2 3
f 1 3 4
f 5 6 7
f 5 7 8
f 9 10 11
f 9 11 12
f 13 14 15
f 13 15 16
f 17 18 19
f 17 19 20
f 21 22 23
f 21 23 24
f 25 26 27
f 25 27 28
f 29 30 31
f 29 31 32
f 33 34 35
f 33 35 36
f 37 38 39
f 37 39 40
f 41 42 43
f 41 43 44
f 45 46 47
f 45 47 48
f 49 50 51
f 49 51 52
f 53 54 55
f 53 55 56
f 57 58 59
f 57 59 60
f 61 62 63
f 61 63 64
f 65 66 67
f 65 67 68
f 69 70 71
f 69 71 72
f 73 74 75
f 73 75 76
f 77 78 79
f 77 79 80
f 81 82 83
f 81 83 84
f 85 86 87
f 85 87 88
f 89 90 91
f 89 91 92
f 93 94 95
f 93 95 96
f 97 98 99
f 97 99 100
f 101 102 103
f 101 103 104
f 105 106 107
f 105 107 108
f 109 110 111
f 109 111 112
f 113 114 115
f 113 115 116
f 117 118 119
f 117 119 120
f 121 122 123
f 121 123 124
f 125 126 127
f 125 127 128
f 129 130 131
f 129 131 132
f 133 134 135
f 133 135 136
f 137 138 139
f 137 139 140
f 141 142 143
f 141 143 144
f 145 146 147
f 145 147 148
f 149 150 151
f 149 151 152
f 153 154 155
f 153 155 156
f 157 158 159
f 157 159 160
f 161 162 163
f 161 163 164
f 165 166 167
f 165 167 168
f 169 170 171
f 169 171 172
f 173 174 175
f 173 175 176
f 177 178 179
f 177 179 180
f 181 182 183
f 181 183 184
f 185 186 187
f 185 187 188
f 189 190 191
f 189 191 192
f 193 194 195
f 193 195 196
f 197 198 199
f 197 199 200
f 201 202 203
f 201 203 204
f 205 206 207
f 205 207 208
f 209 210 211
f 209 211 212
f 213 214 215
f 213 215 216
f 217 218 219
f 217 219 220
f 221 222 223
f 221 223 224
f 225 226 227
f 225 227 228
f 229 230 231
f 229 231 232
f 233 234 235
f 233 235 236
f 237 238 239
f 237 239 240
f 241 242 243
f 241 243 244
f 245 246 247
f 245 247 248
f 249 250 251
f 249 251 252
f 253 254 255
f 253 255 256
f 257 258 259
f 257 259 260
f 261 262 263
f 261 263 264
f 265 266 267
f 265 267 268
f 269 270 271
f 269 271 272
f 273 274 275
f 273 275 276
