# Generated AMR text label mesh
mtllib label_text_black.mtl
o label_receiving
usemtl label_text_black
v -0.039828 0.312931 0.000000
v -0.017069 0.312931 0.000000
v -0.017069 0.318621 0.000000
v -0.039828 0.318621 0.000000
v 0.005690 0.312931 0.000000
v 0.017069 0.312931 0.000000
v 0.017069 0.318621 0.000000
v 0.005690 0.318621 0.000000
v -0.039828 0.307241 0.000000
v -0.017069 0.307241 0.000000
v -0.017069 0.312931 0.000000
v -0.039828 0.312931 0.000000
v 0.005690 0.307241 0.000000
v 0.028448 0.307241 0.000000
v 0.028448 0.312931 0.000000
v 0.005690 0.312931 0.000000
v -0.085345 0.301552 0.000000
v -0.062586 0.301552 0.000000
v -0.062586 0.307241 0.000000
v -0.085345 0.307241 0.000000
v -0.039828 0.301552 0.000000
v -0.017069 0.301552 0.000000
v -0.017069 0.307241 0.000000
v -0.039828 0.307241 0.000000
v 0.005690 0.301552 0.000000
v 0.028448 0.301552 0.000000
v 0.028448 0.307241 0.000000
v 0.005690 0.307241 0.000000
v -0.085345 0.295862 0.000000
v -0.062586 0.295862 0.000000
v -0.062586 0.301552 0.000000
v -0.085345 0.301552 0.000000
v -0.039828 0.295862 0.000000
v -0.017069 0.295862 0.000000
v -0.017069 0.301552 0.000000
v -0.039828 0.301552 0.000000
v 0.005690 0.295862 0.000000
v 0.028448 0.295862 0.000000
v 0.028448 0.301552 0.000000
v 0.005690 0.301552 0.000000
v -0.085345 0.290172 0.000000
v -0.062586 0.290172 0.000000
v -0.062586 0.295862 0.000000
v -0.085345 0.295862 0.000000
v -0.039828 0.290172 0.000000
v -0.017069 0.290172 0.000000
v -0.017069 0.295862 0.000000
v -0.039828 0.295862 0.000000
v 0.000000 0.290172 0.000000
v 0.022759 0.290172 0.000000
v 0.022759 0.295862 0.000000
v 0.000000 0.295862 0.000000
v -0.085345 0.284483 0.000000
v -0.062586 0.284483 0.000000
v -0.062586 0.290172 0.000000
v -0.085345 0.290172 0.000000
v -0.039828 0.284483 0.000000
v -0.017069 0.284483 0.000000
v -0.017069 0.290172 0.000000
v -0.039828 0.290172 0.000000
v 0.000000 0.284483 0.000000
v 0.022759 0.284483 0.000000
v 0.022759 0.290172 0.000000
v 0.000000 0.290172 0.000000
v -0.085345 0.278793 0.000000
v -0.062586 0.278793 0.000000
v -0.062586 0.284483 0.000000
v -0.085345 0.284483 0.000000
v -0.039828 0.278793 0.000000
v -0.017069 0.278793 0.000000
v -0.017069 0.284483 0.000000
v -0.039828 0.284483 0.000000
v 0.000000 0.278793 0.000000
v 0.085345 0.278793 0.000000
v 0.085345 0.284483 0.000000
v 0.000000 0.284483 0.000000
v -0.085345 0.273103 0.000000
v -0.062586 0.273103 0.000000
v -0.062586 0.278793 0.000000
v -0.085345 0.278793 0.000000
v -0.039828 0.273103 0.000000
v -0.017069 0.273103 0.000000
v -0.017069 0.278793 0.000000
v -0.039828 0.278793 0.000000
v 0.000000 0.273103 0.000000
v 0.085345 0.273103 0.000000
v 0.085345 0.278793 0.000000
v 0.000000 0.278793 0.000000
v -0.085345 0.267414 0.000000
v -0.062586 0.267414 0.000000
v -0.062586 0.273103 0.000000
v -0.085345 0.273103 0.000000
v -0.039828 0.267414 0.000000
v -0.017069 0.267414 0.000000
v -0.017069 0.273103 0.000000
v -0.039828 0.273103 0.000000
v -0.005690 0.267414 0.000000
v 0.085345 0.267414 0.000000
v 0.085345 0.273103 0.000000
v -0.005690 0.273103 0.000000
v -0.085345 0.261724 0.000000
v -0.062586 0.261724 0.000000
v -0.062586 0.267414 0.000000
v -0.085345 0.267414 0.000000
v -0.039828 0.261724 0.000000
v -0.017069 0.261724 0.000000
v -0.017069 0.267414 0.000000
v -0.039828 0.267414 0.000000
v -0.005690 0.261724 0.000000
v 0.017069 0.261724 0.000000
v 0.017069 0.267414 0.000000
v -0.005690 0.267414 0.000000
v 0.051207 0.261724 0.000000
v 0.073966 0.261724 0.000000
v 0.073966 0.267414 0.000000
v 0.051207 0.267414 0.000000
v -0.085345 0.256034 0.000000
v -0.062586 0.256034 0.000000
v -0.062586 0.261724 0.000000
v -0.085345 0.261724 0.000000
v -0.039828 0.256034 0.000000
v -0.017069 0.256034 0.000000
v -0.017069 0.261724 0.000000
v -0.039828 0.261724 0.000000
v -0.005690 0.256034 0.000000
v 0.017069 0.256034 0.000000
v 0.017069 0.261724 0.000000
v -0.005690 0.261724 0.000000
v 0.051207 0.256034 0.000000
v 0.073966 0.256034 0.000000
v 0.073966 0.261724 0.000000
v 0.051207 0.261724 0.000000
v -0.085345 0.250345 0.000000
v -0.062586 0.250345 0.000000
v -0.062586 0.256034 0.000000
v -0.085345 0.256034 0.000000
v -0.039828 0.250345 0.000000
v -0.017069 0.250345 0.000000
v -0.017069 0.256034 0.000000
v -0.039828 0.256034 0.000000
v -0.011379 0.250345 0.000000
v 0.011379 0.250345 0.000000
v 0.011379 0.256034 0.000000
v -0.011379 0.256034 0.000000
v 0.051207 0.250345 0.000000
v 0.073966 0.250345 0.000000
v 0.073966 0.256034 0.000000
v 0.051207 0.256034 0.000000
v -0.085345 0.244655 0.000000
v -0.062586 0.244655 0.000000
v -0.062586 0.250345 0.000000
v -0.085345 0.250345 0.000000
v -0.039828 0.244655 0.000000
v -0.017069 0.244655 0.000000
v -0.017069 0.250345 0.000000
v -0.039828 0.250345 0.000000
v -0.011379 0.244655 0.000000
v 0.017069 0.244655 0.000000
v 0.017069 0.250345 0.000000
v -0.011379 0.250345 0.000000
v 0.051207 0.244655 0.000000
v 0.073966 0.244655 0.000000
v 0.073966 0.250345 0.000000
v 0.051207 0.250345 0.000000
v -0.085345 0.238966 0.000000
v -0.062586 0.238966 0.000000
v -0.062586 0.244655 0.000000
v -0.085345 0.244655 0.000000
v -0.039828 0.238966 0.000000
v -0.017069 0.238966 0.000000
v -0.017069 0.244655 0.000000
v -0.039828 0.244655 0.000000
v -0.011379 0.238966 0.000000
v 0.017069 0.238966 0.000000
v 0.017069 0.244655 0.000000
v -0.011379 0.244655 0.000000
v 0.045517 0.238966 0.000000
v 0.068276 0.238966 0.000000
v 0.068276 0.244655 0.000000
v 0.045517 0.244655 0.000000
v -0.085345 0.233276 0.000000
v -0.062586 0.233276 0.000000
v -0.062586 0.238966 0.000000
v -0.085345 0.238966 0.000000
v -0.039828 0.233276 0.000000
v 0.022759 0.233276 0.000000
v 0.022759 0.238966 0.000000
v -0.039828 0.238966 0.000000
v 0.045517 0.233276 0.000000
v 0.068276 0.233276 0.000000
v 0.068276 0.238966 0.000000
v 0.045517 0.238966 0.000000
v -0.085345 0.227586 0.000000
v -0.062586 0.227586 0.000000
v -0.062586 0.233276 0.000000
v -0.085345 0.233276 0.000000
v -0.039828 0.227586 0.000000
v 0.022759 0.227586 0.000000
v 0.022759 0.233276 0.000000
v -0.039828 0.233276 0.000000
v 0.045517 0.227586 0.000000
v 0.068276 0.227586 0.000000
v 0.068276 0.233276 0.000000
v 0.045517 0.233276 0.000000
v -0.085345 0.221897 0.000000
v -0.062586 0.221897 0.000000
v -0.062586 0.227586 0.000000
v -0.085345 0.227586 0.000000
v -0.039828 0.221897 0.000000
v 0.022759 0.221897 0.000000
v 0.022759 0.227586 0.000000
v -0.039828 0.227586 0.000000
v 0.045517 0.221897 0.000000
v 0.068276 0.221897 0.000000
v 0.068276 0.227586 0.000000
v 0.045517 0.227586 0.000000
v -0.085345 0.216207 0.000000
v -0.062586 0.216207 0.000000
v -0.062586 0.221897 0.000000
v -0.085345 0.221897 0.000000
v -0.039828 0.216207 0.000000
v -0.017069 0.216207 0.000000
v -0.017069 0.221897 0.000000
v -0.039828 0.221897 0.000000
v -0.011379 0.216207 0.000000
v 0.000000 0.216207 0.000000
v 0.000000 0.221897 0.000000
v -0.011379 0.221897 0.000000
v 0.005690 0.216207 0.000000
v 0.028448 0.216207 0.000000
v 0.028448 0.221897 0.000000
v 0.005690 0.221897 0.000000
v 0.039828 0.216207 0.000000
v 0.062586 0.216207 0.000000
v 0.062586 0.221897 0.000000
v 0.039828 0.221897 0.000000
v -0.085345 0.210517 0.000000
v -0.062586 0.210517 0.000000
v -0.062586 0.216207 0.000000
v -0.085345 0.216207 0.000000
v -0.039828 0.210517 0.000000
v -0.017069 0.210517 0.000000
v -0.017069 0.216207 0.000000
v -0.039828 0.216207 0.000000
v 0.005690 0.210517 0.000000
v 0.034138 0.210517 0.000000
v 0.034138 0.216207 0.000000
v 0.005690 0.216207 0.000000
v 0.039828 0.210517 0.000000
v 0.062586 0.210517 0.000000
v 0.062586 0.216207 0.000000
v 0.039828 0.216207 0.000000
v -0.085345 0.204828 0.000000
v -0.062586 0.204828 0.000000
v -0.062586 0.210517 0.000000
v -0.085345 0.210517 0.000000
v -0.039828 0.204828 0.000000
v -0.017069 0.204828 0.000000
v -0.017069 0.210517 0.000000
v -0.039828 0.210517 0.000000
v 0.011379 0.204828 0.000000
v 0.062586 0.204828 0.000000
v 0.062586 0.210517 0.000000
v 0.011379 0.210517 0.000000
v -0.085345 0.199138 0.000000
v -0.062586 0.199138 0.000000
v -0.062586 0.204828 0.000000
v -0.085345 0.204828 0.000000
v -0.045517 0.199138 0.000000
v -0.017069 0.199138 0.000000
v -0.017069 0.204828 0.000000
v -0.045517 0.204828 0.000000
v 0.017069 0.199138 0.000000
v 0.056897 0.199138 0.000000
v 0.056897 0.204828 0.000000
v 0.017069 0.204828 0.000000
v -0.085345 0.193448 0.000000
v -0.017069 0.193448 0.000000
v -0.017069 0.199138 0.000000
v -0.085345 0.199138 0.000000
v 0.017069 0.193448 0.000000
v 0.056897 0.193448 0.000000
v 0.056897 0.199138 0.000000
v 0.017069 0.199138 0.000000
v -0.085345 0.187759 0.000000
v -0.017069 0.187759 0.000000
v -0.017069 0.193448 0.000000
v -0.085345 0.193448 0.000000
v 0.022759 0.187759 0.000000
v 0.051207 0.187759 0.000000
v 0.051207 0.193448 0.000000
v 0.022759 0.193448 0.000000
v -0.085345 0.182069 0.000000
v -0.017069 0.182069 0.000000
v -0.017069 0.187759 0.000000
v -0.085345 0.187759 0.000000
v 0.022759 0.182069 0.000000
v 0.051207 0.182069 0.000000
v 0.051207 0.187759 0.000000
v 0.022759 0.187759 0.000000
v -0.079655 0.176379 0.000000
v -0.051207 0.176379 0.000000
v -0.051207 0.182069 0.000000
v -0.079655 0.182069 0.000000
v -0.039828 0.176379 0.000000
v -0.017069 0.176379 0.000000
v -0.017069 0.182069 0.000000
v -0.039828 0.182069 0.000000
v 0.017069 0.176379 0.000000
v 0.056897 0.176379 0.000000
v 0.056897 0.182069 0.000000
v 0.017069 0.182069 0.000000
v -0.073966 0.170690 0.000000
v -0.068276 0.170690 0.000000
v -0.068276 0.176379 0.000000
v -0.073966 0.176379 0.000000
v -0.039828 0.170690 0.000000
v -0.017069 0.170690 0.000000
v -0.017069 0.176379 0.000000
v -0.039828 0.176379 0.000000
v 0.011379 0.170690 0.000000
v 0.062586 0.170690 0.000000
v 0.062586 0.176379 0.000000
v 0.011379 0.176379 0.000000
v -0.039828 0.165000 0.000000
v -0.017069 0.165000 0.000000
v -0.017069 0.170690 0.000000
v -0.039828 0.170690 0.000000
v 0.005690 0.165000 0.000000
v 0.073966 0.165000 0.000000
v 0.073966 0.170690 0.000000
v 0.005690 0.170690 0.000000
v -0.039828 0.159310 0.000000
v -0.017069 0.159310 0.000000
v -0.017069 0.165000 0.000000
v -0.039828 0.165000 0.000000
v -0.005690 0.159310 0.000000
v 0.034138 0.159310 0.000000
v 0.034138 0.165000 0.000000
v -0.005690 0.165000 0.000000
v 0.045517 0.159310 0.000000
v 0.079655 0.159310 0.000000
v 0.079655 0.165000 0.000000
v 0.045517 0.165000 0.000000
v -0.039828 0.153621 0.000000
v -0.017069 0.153621 0.000000
v -0.017069 0.159310 0.000000
v -0.039828 0.159310 0.000000
v -0.011379 0.153621 0.000000
v 0.028448 0.153621 0.000000
v 0.028448 0.159310 0.000000
v -0.011379 0.159310 0.000000
v 0.051207 0.153621 0.000000
v 0.085345 0.153621 0.000000
v 0.085345 0.159310 0.000000
v 0.051207 0.159310 0.000000
v -0.039828 0.147931 0.000000
v 0.017069 0.147931 0.000000
v 0.017069 0.153621 0.000000
v -0.039828 0.153621 0.000000
v 0.056897 0.147931 0.000000
v 0.085345 0.147931 0.000000
v 0.085345 0.153621 0.000000
v 0.056897 0.153621 0.000000
v -0.039828 0.142241 0.000000
v -0.017069 0.142241 0.000000
v -0.017069 0.147931 0.000000
v -0.039828 0.147931 0.000000
v -0.011379 0.142241 0.000000
v 0.011379 0.142241 0.000000
v 0.011379 0.147931 0.000000
v -0.011379 0.147931 0.000000
v 0.062586 0.142241 0.000000
v 0.085345 0.142241 0.000000
v 0.085345 0.147931 0.000000
v 0.062586 0.147931 0.000000
v -0.039828 0.136552 0.000000
v -0.017069 0.136552 0.000000
v -0.017069 0.142241 0.000000
v -0.039828 0.142241 0.000000
v -0.005690 0.136552 0.000000
v 0.000000 0.136552 0.000000
v 0.000000 0.142241 0.000000
v -0.005690 0.142241 0.000000
v 0.068276 0.136552 0.000000
v 0.079655 0.136552 0.000000
v 0.079655 0.142241 0.000000
v 0.068276 0.142241 0.000000
v -0.039828 0.085345 0.000000
v -0.028448 0.085345 0.000000
v -0.028448 0.091034 0.000000
v -0.039828 0.091034 0.000000
v -0.045517 0.079655 0.000000
v -0.022759 0.079655 0.000000
v -0.022759 0.085345 0.000000
v -0.045517 0.085345 0.000000
v -0.005690 0.079655 0.000000
v 0.017069 0.079655 0.000000
v 0.017069 0.085345 0.000000
v -0.005690 0.085345 0.000000
v -0.045517 0.073966 0.000000
v -0.022759 0.073966 0.000000
v -0.022759 0.079655 0.000000
v -0.045517 0.079655 0.000000
v -0.005690 0.073966 0.000000
v 0.017069 0.073966 0.000000
v 0.017069 0.079655 0.000000
v -0.005690 0.079655 0.000000
v 0.056897 0.073966 0.000000
v 0.073966 0.073966 0.000000
v 0.073966 0.079655 0.000000
v 0.056897 0.079655 0.000000
v -0.051207 0.068276 0.000000
v -0.028448 0.068276 0.000000
v -0.028448 0.073966 0.000000
v -0.051207 0.073966 0.000000
v -0.005690 0.068276 0.000000
v 0.017069 0.068276 0.000000
v 0.017069 0.073966 0.000000
v -0.005690 0.073966 0.000000
v 0.045517 0.068276 0.000000
v 0.079655 0.068276 0.000000
v 0.079655 0.073966 0.000000
v 0.045517 0.073966 0.000000
v -0.056897 0.062586 0.000000
v -0.028448 0.062586 0.000000
v -0.028448 0.068276 0.000000
v -0.056897 0.068276 0.000000
v -0.005690 0.062586 0.000000
v 0.017069 0.062586 0.000000
v 0.017069 0.068276 0.000000
v -0.005690 0.068276 0.000000
v 0.028448 0.062586 0.000000
v 0.079655 0.062586 0.000000
v 0.079655 0.068276 0.000000
v 0.028448 0.068276 0.000000
v -0.062586 0.056897 0.000000
v -0.034138 0.056897 0.000000
v -0.034138 0.062586 0.000000
v -0.062586 0.062586 0.000000
v -0.005690 0.056897 0.000000
v 0.068276 0.056897 0.000000
v 0.068276 0.062586 0.000000
v -0.005690 0.062586 0.000000
v -0.068276 0.051207 0.000000
v -0.039828 0.051207 0.000000
v -0.039828 0.056897 0.000000
v -0.068276 0.056897 0.000000
v -0.005690 0.051207 0.000000
v 0.056897 0.051207 0.000000
v 0.056897 0.056897 0.000000
v -0.005690 0.056897 0.000000
v -0.073966 0.045517 0.000000
v -0.039828 0.045517 0.000000
v -0.039828 0.051207 0.000000
v -0.073966 0.051207 0.000000
v -0.028448 0.045517 0.000000
v 0.045517 0.045517 0.000000
v 0.045517 0.051207 0.000000
v -0.028448 0.051207 0.000000
v -0.085345 0.039828 0.000000
v -0.039828 0.039828 0.000000
v -0.039828 0.045517 0.000000
v -0.085345 0.045517 0.000000
v -0.034138 0.039828 0.000000
v 0.028448 0.039828 0.000000
v 0.028448 0.045517 0.000000
v -0.034138 0.045517 0.000000
v 0.068276 0.039828 0.000000
v 0.079655 0.039828 0.000000
v 0.079655 0.045517 0.000000
v 0.068276 0.045517 0.000000
v -0.085345 0.034138 0.000000
v -0.039828 0.034138 0.000000
v -0.039828 0.039828 0.000000
v -0.085345 0.039828 0.000000
v -0.028448 0.034138 0.000000
v 0.017069 0.034138 0.000000
v 0.017069 0.039828 0.000000
v -0.028448 0.039828 0.000000
v 0.068276 0.034138 0.000000
v 0.085345 0.034138 0.000000
v 0.085345 0.039828 0.000000
v 0.068276 0.039828 0.000000
v -0.079655 0.028448 0.000000
v -0.062586 0.028448 0.000000
v -0.062586 0.034138 0.000000
v -0.079655 0.034138 0.000000
v -0.056897 0.028448 0.000000
v -0.039828 0.028448 0.000000
v -0.039828 0.034138 0.000000
v -0.056897 0.034138 0.000000
v -0.028448 0.028448 0.000000
v -0.011379 0.028448 0.000000
v -0.011379 0.034138 0.000000
v -0.028448 0.034138 0.000000
v -0.005690 0.028448 0.000000
v 0.017069 0.028448 0.000000
v 0.017069 0.034138 0.000000
v -0.005690 0.034138 0.000000
v 0.062586 0.028448 0.000000
v 0.085345 0.028448 0.000000
v 0.085345 0.034138 0.000000
v 0.062586 0.034138 0.000000
v -0.079655 0.022759 0.000000
v -0.068276 0.022759 0.000000
v -0.068276 0.028448 0.000000
v -0.079655 0.028448 0.000000
v -0.056897 0.022759 0.000000
v -0.039828 0.022759 0.000000
v -0.039828 0.028448 0.000000
v -0.056897 0.028448 0.000000
v -0.005690 0.022759 0.000000
v 0.085345 0.022759 0.000000
v 0.085345 0.028448 0.000000
v -0.005690 0.028448 0.000000
v -0.056897 0.017069 0.000000
v -0.039828 0.017069 0.000000
v -0.039828 0.022759 0.000000
v -0.056897 0.022759 0.000000
v -0.005690 0.017069 0.000000
v 0.085345 0.017069 0.000000
v 0.085345 0.022759 0.000000
v -0.005690 0.022759 0.000000
v -0.056897 0.011379 0.000000
v -0.039828 0.011379 0.000000
v -0.039828 0.017069 0.000000
v -0.056897 0.017069 0.000000
v 0.000000 0.011379 0.000000
v 0.079655 0.011379 0.000000
v 0.079655 0.017069 0.000000
v 0.000000 0.017069 0.000000
v -0.056897 0.005690 0.000000
v -0.039828 0.005690 0.000000
v -0.039828 0.011379 0.000000
v -0.056897 0.011379 0.000000
v 0.017069 0.005690 0.000000
v 0.056897 0.005690 0.000000
v 0.056897 0.011379 0.000000
v 0.017069 0.011379 0.000000
v -0.062586 0.000000 0.000000
v 0.062586 0.000000 0.000000
v 0.062586 0.005690 0.000000
v -0.062586 0.005690 0.000000
v -0.062586 -0.005690 0.000000
v 0.062586 -0.005690 0.000000
v 0.062586 0.000000 0.000000
v -0.062586 0.000000 0.000000
v -0.062586 -0.011379 0.000000
v 0.062586 -0.011379 0.000000
v 0.062586 -0.005690 0.000000
v -0.062586 -0.005690 0.000000
v -0.062586 -0.017069 0.000000
v 0.062586 -0.017069 0.000000
v 0.062586 -0.011379 0.000000
v -0.062586 -0.011379 0.000000
v -0.062586 -0.022759 0.000000
v -0.045517 -0.022759 0.000000
v -0.045517 -0.017069 0.000000
v -0.062586 -0.017069 0.000000
v -0.005690 -0.022759 0.000000
v 0.011379 -0.022759 0.000000
v 0.011379 -0.017069 0.000000
v -0.005690 -0.017069 0.000000
v 0.039828 -0.022759 0.000000
v 0.062586 -0.022759 0.000000
v 0.062586 -0.017069 0.000000
v 0.039828 -0.017069 0.000000
v -0.062586 -0.028448 0.000000
v -0.039828 -0.028448 0.000000
v -0.039828 -0.022759 0.000000
v -0.062586 -0.022759 0.000000
v -0.011379 -0.028448 0.000000
v 0.011379 -0.028448 0.000000
v 0.011379 -0.022759 0.000000
v -0.011379 -0.022759 0.000000
v 0.039828 -0.028448 0.000000
v 0.062586 -0.028448 0.000000
v 0.062586 -0.022759 0.000000
v 0.039828 -0.022759 0.000000
v -0.062586 -0.034138 0.000000
v -0.039828 -0.034138 0.000000
v -0.039828 -0.028448 0.000000
v -0.062586 -0.028448 0.000000
v -0.011379 -0.034138 0.000000
v 0.011379 -0.034138 0.000000
v 0.011379 -0.028448 0.000000
v -0.011379 -0.028448 0.000000
v 0.039828 -0.034138 0.000000
v 0.062586 -0.034138 0.000000
v 0.062586 -0.028448 0.000000
v 0.039828 -0.028448 0.000000
v -0.062586 -0.039828 0.000000
v -0.039828 -0.039828 0.000000
v -0.039828 -0.034138 0.000000
v -0.062586 -0.034138 0.000000
v -0.017069 -0.039828 0.000000
v 0.011379 -0.039828 0.000000
v 0.011379 -0.034138 0.000000
v -0.017069 -0.034138 0.000000
v 0.039828 -0.039828 0.000000
v 0.062586 -0.039828 0.000000
v 0.062586 -0.034138 0.000000
v 0.039828 -0.034138 0.000000
v -0.062586 -0.045517 0.000000
v -0.039828 -0.045517 0.000000
v -0.039828 -0.039828 0.000000
v -0.062586 -0.039828 0.000000
v -0.017069 -0.045517 0.000000
v 0.005690 -0.045517 0.000000
v 0.005690 -0.039828 0.000000
v -0.017069 -0.039828 0.000000
v 0.039828 -0.045517 0.000000
v 0.062586 -0.045517 0.000000
v 0.062586 -0.039828 0.000000
v 0.039828 -0.039828 0.000000
v -0.062586 -0.051207 0.000000
v -0.039828 -0.051207 0.000000
v -0.039828 -0.045517 0.000000
v -0.062586 -0.045517 0.000000
v -0.022759 -0.051207 0.000000
v 0.005690 -0.051207 0.000000
v 0.005690 -0.045517 0.000000
v -0.022759 -0.045517 0.000000
v 0.039828 -0.051207 0.000000
v 0.062586 -0.051207 0.000000
v 0.062586 -0.045517 0.000000
v 0.039828 -0.045517 0.000000
v -0.062586 -0.056897 0.000000
v -0.039828 -0.056897 0.000000
v -0.039828 -0.051207 0.000000
v -0.062586 -0.051207 0.000000
v -0.028448 -0.056897 0.000000
v 0.000000 -0.056897 0.000000
v 0.000000 -0.051207 0.000000
v -0.028448 -0.051207 0.000000
v 0.011379 -0.056897 0.000000
v 0.034138 -0.056897 0.000000
v 0.034138 -0.051207 0.000000
v 0.011379 -0.051207 0.000000
v 0.039828 -0.056897 0.000000
v 0.062586 -0.056897 0.000000
v 0.062586 -0.051207 0.000000
v 0.039828 -0.051207 0.000000
v -0.062586 -0.062586 0.000000
v -0.045517 -0.062586 0.000000
v -0.045517 -0.056897 0.000000
v -0.062586 -0.056897 0.000000
v -0.039828 -0.062586 0.000000
v -0.005690 -0.062586 0.000000
v -0.005690 -0.056897 0.000000
v -0.039828 -0.056897 0.000000
v 0.005690 -0.062586 0.000000
v 0.056897 -0.062586 0.000000
v 0.056897 -0.056897 0.000000
v 0.005690 -0.056897 0.000000
v -0.051207 -0.068276 0.000000
v -0.011379 -0.068276 0.000000
v -0.011379 -0.062586 0.000000
v -0.051207 -0.062586 0.000000
v 0.005690 -0.068276 0.000000
v 0.068276 -0.068276 0.000000
v 0.068276 -0.062586 0.000000
v 0.005690 -0.062586 0.000000
v -0.079655 -0.073966 0.000000
v -0.017069 -0.073966 0.000000
v -0.017069 -0.068276 0.000000
v -0.079655 -0.068276 0.000000
v 0.017069 -0.073966 0.000000
v 0.079655 -0.073966 0.000000
v 0.079655 -0.068276 0.000000
v 0.017069 -0.068276 0.000000
v -0.079655 -0.079655 0.000000
v -0.028448 -0.079655 0.000000
v -0.028448 -0.073966 0.000000
v -0.079655 -0.073966 0.000000
v 0.034138 -0.079655 0.000000
v 0.079655 -0.079655 0.000000
v 0.079655 -0.073966 0.000000
v 0.034138 -0.073966 0.000000
v -0.079655 -0.085345 0.000000
v -0.039828 -0.085345 0.000000
v -0.039828 -0.079655 0.000000
v -0.079655 -0.079655 0.000000
v 0.051207 -0.085345 0.000000
v 0.073966 -0.085345 0.000000
v 0.073966 -0.079655 0.000000
v 0.051207 -0.079655 0.000000
v -0.073966 -0.091034 0.000000
v -0.056897 -0.091034 0.000000
v -0.056897 -0.085345 0.000000
v -0.073966 -0.085345 0.000000
v 0.062586 -0.091034 0.000000
v 0.073966 -0.091034 0.000000
v 0.073966 -0.085345 0.000000
v 0.062586 -0.085345 0.000000
v -0.073966 -0.142241 0.000000
v 0.073966 -0.142241 0.000000
v 0.073966 -0.136552 0.000000
v -0.073966 -0.136552 0.000000
v -0.073966 -0.147931 0.000000
v 0.073966 -0.147931 0.000000
v 0.073966 -0.142241 0.000000
v -0.073966 -0.142241 0.000000
v -0.073966 -0.153621 0.000000
v 0.073966 -0.153621 0.000000
v 0.073966 -0.147931 0.000000
v -0.073966 -0.147931 0.000000
v -0.073966 -0.159310 0.000000
v 0.073966 -0.159310 0.000000
v 0.073966 -0.153621 0.000000
v -0.073966 -0.153621 0.000000
v -0.073966 -0.165000 0.000000
v -0.051207 -0.165000 0.000000
v -0.051207 -0.159310 0.000000
v -0.073966 -0.159310 0.000000
v 0.051207 -0.165000 0.000000
v 0.073966 -0.165000 0.000000
v 0.073966 -0.159310 0.000000
v 0.051207 -0.159310 0.000000
v -0.073966 -0.170690 0.000000
v -0.051207 -0.170690 0.000000
v -0.051207 -0.165000 0.000000
v -0.073966 -0.165000 0.000000
v 0.051207 -0.170690 0.000000
v 0.073966 -0.170690 0.000000
v 0.073966 -0.165000 0.000000
v 0.051207 -0.165000 0.000000
v -0.073966 -0.176379 0.000000
v -0.051207 -0.176379 0.000000
v -0.051207 -0.170690 0.000000
v -0.073966 -0.170690 0.000000
v 0.051207 -0.176379 0.000000
v 0.073966 -0.176379 0.000000
v 0.073966 -0.170690 0.000000
v 0.051207 -0.170690 0.000000
v -0.073966 -0.182069 0.000000
v -0.051207 -0.182069 0.000000
v -0.051207 -0.176379 0.000000
v -0.073966 -0.176379 0.000000
v 0.051207 -0.182069 0.000000
v 0.073966 -0.182069 0.000000
v 0.073966 -0.176379 0.000000
v 0.051207 -0.176379 0.000000
v -0.073966 -0.187759 0.000000
v -0.051207 -0.187759 0.000000
v -0.051207 -0.182069 0.000000
v -0.073966 -0.182069 0.000000
v 0.051207 -0.187759 0.000000
v 0.073966 -0.187759 0.000000
v 0.073966 -0.182069 0.000000
v 0.051207 -0.182069 0.000000
v -0.073966 -0.193448 0.000000
v -0.051207 -0.193448 0.000000
v -0.051207 -0.187759 0.000000
v -0.073966 -0.187759 0.000000
v 0.051207 -0.193448 0.000000
v 0.073966 -0.193448 0.000000
v 0.073966 -0.187759 0.000000
v 0.051207 -0.187759 0.000000
v -0.073966 -0.199138 0.000000
v -0.051207 -0.199138 0.000000
v -0.051207 -0.193448 0.000000
v -0.073966 -0.193448 0.000000
v 0.051207 -0.199138 0.000000
v 0.073966 -0.199138 0.000000
v 0.073966 -0.193448 0.000000
v 0.051207 -0.193448 0.000000
v -0.073966 -0.204828 0.000000
v -0.051207 -0.204828 0.000000
v -0.051207 -0.199138 0.000000
v -0.073966 -0.199138 0.000000
v 0.051207 -0.204828 0.000000
v 0.073966 -0.204828 0.000000
v 0.073966 -0.199138 0.000000
v 0.051207 -0.199138 0.000000
v -0.073966 -0.210517 0.000000
v -0.051207 -0.210517 0.000000
v -0.051207 -0.204828 0.000000
v -0.073966 -0.204828 0.000000
v 0.051207 -0.210517 0.000000
v 0.073966 -0.210517 0.000000
v 0.073966 -0.204828 0.000000
v 0.051207 -0.204828 0.000000
v -0.073966 -0.216207 0.000000
v -0.051207 -0.216207 0.000000
v -0.051207 -0.210517 0.000000
v -0.073966 -0.210517 0.000000
v 0.051207 -0.216207 0.000000
v 0.073966 -0.216207 0.000000
v 0.073966 -0.210517 0.000000
v 0.051207 -0.210517 0.000000
v -0.073966 -0.221897 0.000000
v -0.051207 -0.221897 0.000000
v -0.051207 -0.216207 0.000000
v -0.073966 -0.216207 0.000000
v 0.051207 -0.221897 0.000000
v 0.073966 -0.221897 0.000000
v 0.073966 -0.216207 0.000000
v 0.051207 -0.216207 0.000000
v -0.073966 -0.227586 0.000000
v -0.051207 -0.227586 0.000000
v -0.051207 -0.221897 0.000000
v -0.073966 -0.221897 0.000000
v 0.051207 -0.227586 0.000000
v 0.073966 -0.227586 0.000000
v 0.073966 -0.221897 0.000000
v 0.051207 -0.221897 0.000000
v -0.073966 -0.233276 0.000000
v -0.051207 -0.233276 0.000000
v -0.051207 -0.227586 0.000000
v -0.073966 -0.227586 0.000000
v 0.051207 -0.233276 0.000000
v 0.073966 -0.233276 0.000000
v 0.073966 -0.227586 0.000000
v 0.051207 -0.227586 0.000000
v -0.073966 -0.238966 0.000000
v -0.051207 -0.238966 0.000000
v -0.051207 -0.233276 0.000000
v -0.073966 -0.233276 0.000000
v 0.051207 -0.238966 0.000000
v 0.073966 -0.238966 0.000000
v 0.073966 -0.233276 0.000000
v 0.051207 -0.233276 0.000000
v -0.073966 -0.244655 0.000000
v -0.051207 -0.244655 0.000000
v -0.051207 -0.238966 0.000000
v -0.073966 -0.238966 0.000000
v 0.051207 -0.244655 0.000000
v 0.073966 -0.244655 0.000000
v 0.073966 -0.238966 0.000000
v 0.051207 -0.238966 0.000000
v -0.073966 -0.250345 0.000000
v -0.051207 -0.250345 0.000000
v -0.051207 -0.244655 0.000000
v -0.073966 -0.244655 0.000000
v 0.051207 -0.250345 0.000000
v 0.073966 -0.250345 0.000000
v 0.073966 -0.244655 0.000000
v 0.051207 -0.244655 0.000000
v -0.073966 -0.256034 0.000000
v -0.051207 -0.256034 0.000000
v -0.051207 -0.250345 0.000000
v -0.073966 -0.250345 0.000000
v 0.051207 -0.256034 0.000000
v 0.073966 -0.256034 0.000000
v 0.073966 -0.250345 0.000000
v 0.051207 -0.250345 0.000000
v -0.073966 -0.261724 0.000000
v -0.051207 -0.261724 0.000000
v -0.051207 -0.256034 0.000000
v -0.073966 -0.256034 0.000000
v 0.051207 -0.261724 0.000000
v 0.073966 -0.261724 0.000000
v 0.073966 -0.256034 0.000000
v 0.051207 -0.256034 0.000000
v -0.073966 -0.267414 0.000000
v -0.051207 -0.267414 0.000000
v -0.051207 -0.261724 0.000000
v -0.073966 -0.261724 0.000000
v 0.051207 -0.267414 0.000000
v 0.073966 -0.267414 0.000000
v 0.073966 -0.261724 0.000000
v 0.051207 -0.261724 0.000000
v -0.073966 -0.273103 0.000000
v -0.051207 -0.273103 0.000000
v -0.051207 -0.267414 0.000000
v -0.073966 -0.267414 0.000000
v 0.051207 -0.273103 0.000000
v 0.073966 -0.273103 0.000000
v 0.073966 -0.267414 0.000000
v 0.051207 -0.267414 0.000000
v -0.073966 -0.278793 0.000000
v -0.051207 -0.278793 0.000000
v -0.051207 -0.273103 0.000000
v -0.073966 -0.273103 0.000000
v 0.051207 -0.278793 0.000000
v 0.073966 -0.278793 0.000000
v 0.073966 -0.273103 0.000000
v 0.051207 -0.273103 0.000000
v -0.073966 -0.284483 0.000000
v 0.073966 -0.284483 0.000000
v 0.073966 -0.278793 0.000000
v -0.073966 -0.278793 0.000000
v -0.073966 -0.290172 0.000000
v 0.073966 -0.290172 0.000000
v 0.073966 -0.284483 0.000000
v -0.073966 -0.284483 0.000000
v -0.073966 -0.295862 0.000000
v 0.073966 -0.295862 0.000000
v 0.073966 -0.290172 0.000000
v -0.073966 -0.290172 0.000000
v -0.073966 -0.301552 0.000000
v 0.073966 -0.301552 0.000000
v 0.073966 -0.295862 0.000000
v -0.073966 -0.295862 0.000000
v -0.073966 -0.307241 0.000000
v -0.051207 -0.307241 0.000000
v -0.051207 -0.301552 0.000000
v -0.073966 -0.301552 0.000000
v 0.051207 -0.307241 0.000000
v 0.073966 -0.307241 0.000000
v 0.073966 -0.301552 0.000000
v 0.051207 -0.301552 0.000000
v -0.073966 -0.312931 0.000000
v -0.051207 -0.312931 0.000000
v -0.051207 -0.307241 0.000000
v -0.073966 -0.307241 0.000000
v 0.051207 -0.312931 0.000000
v 0.073966 -0.312931 0.000000
v 0.073966 -0.307241 0.000000
v 0.051207 -0.307241 0.000000
v -0.073966 -0.318621 0.000000
v -0.056897 -0.318621 0.000000
v -0.056897 -0.312931 0.000000
v -0.073966 -0.312931 0.000000
v 0.056897 -0.318621 0.000000
v 0.073966 -0.318621 0.000000
v 0.073966 -0.312931 0.000000
v 0.056897 -0.312931 0.000000
f 1 2 3
f 1 3 4
f 5 6 7
f 5 7 8
f 9 10 11
f 9 11 12
f 13 14 15
f 13 15 16
f 17 18 19
f 17 19 20
f 21 22 23
f 21 23 24
f 25 26 27
f 25 27 28
f 29 30 31
f 29 31 32
f 33 34 35
f 33 35 36
f 37 38 39
f 37 39 40
f 41 42 43
f 41 43 44
f 45 46 47
f 45 47 48
f 49 50 51
f 49 51 52
f 53 54 55
f 53 55 56
f 57 58 59
f 57 59 60
f 61 62 63
f 61 63 64
f 65 66 67
f 65 67 68
f 69 70 71
f 69 71 72
f 73 74 75
f 73 75 76
f 77 78 79
f 77 79 80
f 81 82 83
f 81 83 84
f 85 86 87
f 85 87 88
f 89 90 91
f 89 91 92
f 93 94 95
f 93 95 96
f 97 98 99
f 97 99 100
f 101 102 103
f 101 103 104
f 105 106 107
f 105 107 108
f 109 110 111
f 109 111 112
f 113 114 115
f 113 115 116
f 117 118 119
f 117 119 120
f 121 122 123
f 121 123 124
f 125 126 127
f 125 127 128
f 129 130 131
f 129 131 132
f 133 134 135
f 133 135 136
f 137 138 139
f 137 139 140
f 141 142 143
f 141 143 144
f 145 146 147
f 145 147 148
f 149 150 151
f 149 151 152
f 153 154 155
f 153 155 156
f 157 158 159
f 157 159 160
f 161 162 163
f 161 163 164
f 165 166 167
f 165 167 168
f 169 170 171
f 169 171 172
f 173 174 175
f 173 175 176
f 177 178 179
f 177 179 180
f 181 182 183
f 181 183 184
f 185 186 187
f 185 187 188
f 189 190 191
f 189 191 192
f 193 194 195
f 193 195 196
f 197 198 199
f 197 199 200
f 201 202 203
f 201 203 204
f 205 206 207
f 205 207 208
f 209 210 211
f 209 211 212
f 213 214 215
f 213 215 216
f 217 218 219
f 217 219 220
f 221 222 223
f 221 223 224
f 225 226 227
f 225 227 228
f 229 230 231
f 229 231 232
f 233 234 235
f 233 235 236
f 237 238 239
f 237 239 240
f 241 242 243
f 241 243 244
f 245 246 247
f 245 247 248
f 249 250 251
f 249 251 252
f 253 254 255
f 253 255 256
f 257 258 259
f 257 259 260
f 261 262 263
f 261 263 264
f 265 266 267
f 265 267 268
f 269 270 271
f 269 271 272
f 273 274 275
f 273 275 276
f 277 278 279
f 277 279 280
f 281 282 283
f 281 283 284
f 285 286 287
f 285 287 288
f 289 290 291
f 289 291 292
f 293 294 295
f 293 295 296
f 297 298 299
f 297 299 300
f 301 302 303
f 301 303 304
f 305 306 307
f 305 307 308
f 309 310 311
f 309 311 312
f 313 314 315
f 313 315 316
f 317 318 319
f 317 319 320
f 321 322 323
f 321 323 324
f 325 326 327
f 325 327 328
f 329 330 331
f 329 331 332
f 333 334 335
f 333 335 336
f 337 338 339
f 337 339 340
f 341 342 343
f 341 343 344
f 345 346 347
f 345 347 348
f 349 350 351
f 349 351 352
f 353 354 355
f 353 355 356
f 357 358 359
f 357 359 360
f 361 362 363
f 361 363 364
f 365 366 367
f 365 367 368
f 369 370 371
f 369 371 372
f 373 374 375
f 373 375 376
f 377 378 379
f 377 379 380
f 381 382 383
f 381 383 384
f 385 386 387
f 385 387 388
f 389 390 391
f 389 391 392
f 393 394 395
f 393 395 396
f 397 398 399
f 397 399 400
f 401 402 403
f 401 403 404
f 405 406 407
f 405 407 408
f 409 410 411
f 409 411 412
f 413 414 415
f 413 415 416
f 417 418 419
f 417 419 420
f 421 422 423
f 421 423 424
f 425 426 427
f 425 427 428
f 429 430 431
f 429 431 432
f 433 434 435
f 433 435 436
f 437 438 439
f 437 439 440
f 441 442 443
f 441 443 444
f 445 446 447
f 445 447 448
f 449 450 451
f 449 451 452
f 453 454 455
f 453 455 456
f 457 458 459
f 457 459 460
f 461 462 463
f 461 463 464
f 465 466 467
f 465 467 468
f 469 470 471
f 469 471 472
f 473 474 475
f 473 475 476
f 477 478 479
f 477 479 480
f 481 482 483
f 481 483 484
f 485 486 487
f 485 487 488
f 489 490 491
f 489 491 492
f 493 494 495
f 493 495 496
f 497 498 499
f 497 499 500
f 501 502 503
f 501 503 504
f 505 506 507
f 505 507 508
f 509 510 511
f 509 511 512
f 513 514 515
f 513 515 516
f 517 518 519
f 517 519 520
f 521 522 523
f 521 523 524
f 525 526 527
f 525 527 528
f 529 530 531
f 529 531 532
f 533 534 535
f 533 535 536
f 537 538 539
f 537 539 540
f 541 542 543
f 541 543 544
f 545 546 547
f 545 547 548
f 549 550 551
f 549 551 552
f 553 554 555
f 553 555 556
f 557 558 559
f 557 559 560
f 561 562 563
f 561 563 564
f 565 566 567
f 565 567 568
f 569 570 571
f 569 571 572
f 573 574 575
f 573 575 576
f 577 578 579
f 577 579 580
f 581 582 583
f 581 583 584
f 585 586 587
f 585 587 588
f 589 590 591
f 589 591 592
f 593 594 595
f 593 595 596
f 597 598 599
f 597 599 600
f 601 602 603
f 601 603 604
f 605 606 607
f 605 607 608
f 609 610 611
f 609 611 612
f 613 614 615
f 613 615 616
f 617 618 619
f 617 619 620
f 621 622 623
f 621 623 624
f 625 626 627
f 625 627 628
f 629 630 631
f 629 631 632
f 633 634 635
f 633 635 636
f 637 638 639
f 637 639 640
f 641 642 643
f 641 643 644
f 645 646 647
f 645 647 648
f 649 650 651
f 649 651 652
f 653 654 655
f 653 655 656
f 657 658 659
f 657 659 660
f 661 662 663
f 661 663 664
f 665 666 667
f 665 667 668
f 669 670 671
f 669 671 672
f 673 674 675
f 673 675 676
f 677 678 679
f 677 679 680
f 681 682 683
f 681 683 684
f 685 686 687
f 685 687 688
f 689 690 691
f 689 691 692
f 693 694 695
f 693 695 696
f 697 698 699
f 697 699 700
f 701 702 703
f 701 703 704
f 705 706 707
f 705 707 708
f 709 710 711
f 709 711 712
f 713 714 715
f 713 715 716
f 717 718 719
f 717 719 720
f 721 722 723
f 721 723 724
f 725 726 727
f 725 727 728
f 729 730 731
f 729 731 732
f 733 734 735
f 733 735 736
f 737 738 739
f 737 739 740
f 741 742 743
f 741 743 744
f 745 746 747
f 745 747 748
f 749 750 751
f 749 751 752
f 753 754 755
f 753 755 756
f 757 758 759
f 757 759 760
f 761 762 763
f 761 763 764
f 765 766 767
f 765 767 768
f 769 770 771
f 769 771 772
f 773 774 775
f 773 775 776
f 777 778 779
f 777 779 780
f 781 782 783
f 781 783 784
f 785 786 787
f 785 787 788
f 789 790 791
f 789 791 792
f 793 794 795
f 793 795 796
f 797 798 799
f 797 799 800
f 801 802 803
f 801 803 804
f 805 806 807
f 805 807 808
f 809 810 811
f 809 811 812
f 813 814 815
f 813 815 816
f 817 818 819
f 817 819 820
f 821 822 823
f 821 823 824
f 825 826 827
f 825 827 828
f 829 830 831
f 829 831 832
f 833 834 835
f 833 835 836
f 837 838 839
f 837 839 840
f 841 842 843
f 841 843 844
f 845 846 847
f 845 847 848
f 849 850 851
f 849 851 852
f 853 854 855
f 853 855 856
f 857 858 859
f 857 859 860
f 861 862 863
f 861 863 864
f 865 866 867
f 865 867 868
f 869 870 871
f 869 871 872
f 873 874 875
f 873 875 876
f 877 878 879
f 877 879 880
f 881 882 883
f 881 883 884
f 885 886 887
f 885 887 888
f 889 890 891
f 889 891 892
f 893 894 895
f 893 895 896
f 897 898 899
f 897 899 900
f 901 902 903
f 901 903 904
f 905 906 907
f 905 907 908
f 909 910 911
f 909 911 912
f 913 914 915
f 913 915 916
f 917 918 919
f 917 919 920
